<svg width="254" height="235" viewBox="0 0 254 235" fill="none" xmlns="http://www.w3.org/2000/svg">
<path d="M196.96 135.336H240.455C241.283 135.337 241.955 136.008 241.955 136.836V218.875C241.955 219.703 241.283 220.374 240.455 220.375H146.96C146.131 220.375 145.46 219.703 145.46 218.875V186.836C145.46 158.394 168.517 135.336 196.96 135.336ZM16.1111 132.768H59.6062C88.0488 132.768 111.106 155.825 111.106 184.268V216.306C111.106 217.134 110.434 217.806 109.606 217.806H16.1111C15.2827 217.806 14.6112 217.134 14.6111 216.306V134.268L14.6189 134.115C14.6955 133.358 15.3343 132.768 16.1111 132.768ZM16.1111 18.478H109.606C110.435 18.4781 111.106 19.1497 111.106 19.978V52.0161C111.106 80.4587 88.0488 103.516 59.6062 103.516H16.1111C15.2827 103.516 14.6111 102.845 14.6111 102.016V19.978C14.6111 19.1496 15.2827 18.478 16.1111 18.478ZM146.96 18.478H240.455C241.283 18.4782 241.955 19.1497 241.955 19.978V102.016C241.955 102.844 241.283 103.516 240.455 103.516H196.96C168.517 103.516 145.46 80.4588 145.46 52.0161V19.978C145.46 19.1496 146.131 18.478 146.96 18.478Z" fill="white" stroke="#CECECE"/>
</svg>
